HIERARCHY
ROOT Hips
{
	OFFSET -14.64140 90.27770 -84.91600
	CHANNELS 6 Xposition Yposition Zposition Zrotation Xrotation Yrotation
	JOINT Spine
	{
		OFFSET 0.00000 13.20850 -1.60436
		CHANNELS 3 Zrotation Xrotation Yrotation
		JOINT Spine1
		{
			OFFSET 0.00000 8.61716 0.00000
			CHANNELS 3 Zrotation Xrotation Yrotation
			JOINT Spine2
			{
				OFFSET 0.00000 8.61717 0.00000
				CHANNELS 3 Zrotation Xrotation Yrotation
				JOINT Spine3
				{
					OFFSET 0.00000 8.61717 0.00000
					CHANNELS 3 Zrotation Xrotation Yrotation
					JOINT Neck
					{
						OFFSET 0.00000 11.07920 1.10792
						CHANNELS 3 Zrotation Xrotation Yrotation
						JOINT Neck1
						{
							OFFSET 0.00000 7.08032 0.00000
							CHANNELS 3 Zrotation Xrotation Yrotation
							JOINT Head
							{
								OFFSET 0.00000 7.08031 0.00000
								CHANNELS 3 Zrotation Xrotation Yrotation
								End site
								{
									OFFSET 0.00000 0.00000 0.00000
								}
							}
						}
					}
					JOINT RightShoulder
					{
						OFFSET -0.01000 7.91373 5.19711
						CHANNELS 3 Zrotation Xrotation Yrotation
						JOINT RightArm
						{
							OFFSET -18.41580 0.00000 0.00000
							CHANNELS 3 Zrotation Xrotation Yrotation
							JOINT RightForeArm
							{
								OFFSET -29.11090 0.00000 0.00000
								CHANNELS 3 Zrotation Xrotation Yrotation
								JOINT RightHand
								{
									OFFSET -24.65040 0.00000 0.00000
									CHANNELS 3 Zrotation Xrotation Yrotation
									JOINT RightHandThumb1
									{
										OFFSET -5.35114 -0.85590 3.97906
										CHANNELS 3 Zrotation Xrotation Yrotation
										JOINT RightHandThumb2
										{
											OFFSET -4.52789 0.00000 0.00000
											CHANNELS 3 Zrotation Xrotation Yrotation
											JOINT RightHandThumb3
											{
												OFFSET -2.46976 0.00000 0.00000
												CHANNELS 3 Zrotation Xrotation Yrotation
												End site
												{
													OFFSET 0.00000 0.00000 0.00000
												}
											}
										}
									}
									JOINT RightHandIndex1
									{
										OFFSET -14.26970 0.00000 2.88139
										CHANNELS 3 Zrotation Xrotation Yrotation
										JOINT RightHandIndex2
										{
											OFFSET -5.48836 0.00000 0.00000
											CHANNELS 3 Zrotation Xrotation Yrotation
											JOINT RightHandIndex3
											{
												OFFSET -3.01859 0.00000 0.00000
												CHANNELS 3 Zrotation Xrotation Yrotation
												End site
												{
													OFFSET 0.00000 0.00000 0.00000
												}
											}
										}
									}
									JOINT RightHandMiddle1
									{
										OFFSET -14.26970 0.00000 -0.09147
										CHANNELS 3 Zrotation Xrotation Yrotation
										JOINT RightHandMiddle2
										{
											OFFSET -6.17441 0.00000 0.00000
											CHANNELS 3 Zrotation Xrotation Yrotation
											JOINT RightHandMiddle3
											{
												OFFSET -3.56743 0.00000 0.00000
												CHANNELS 3 Zrotation Xrotation Yrotation
												End site
												{
													OFFSET 0.00000 0.00000 0.00000
												}
											}
										}
									}
									JOINT RightHandRing1
									{
										OFFSET -12.69180 0.00000 -3.06433
										CHANNELS 3 Zrotation Xrotation Yrotation
										JOINT RightHandRing2
										{
											OFFSET -5.62556 0.00000 0.00000
											CHANNELS 3 Zrotation Xrotation Yrotation
											JOINT RightHandRing3
											{
												OFFSET -3.56744 0.00000 0.00000
												CHANNELS 3 Zrotation Xrotation Yrotation
												End site
												{
													OFFSET 0.00000 0.00000 0.00000
												}
											}
										}
									}
									JOINT RightHandPinky1
									{
										OFFSET -11.11390 0.00000 -6.03719
										CHANNELS 3 Zrotation Xrotation Yrotation
										JOINT RightHandPinky2
										{
											OFFSET -4.52789 0.00000 0.00000
											CHANNELS 3 Zrotation Xrotation Yrotation
											JOINT RightHandPinky3
											{
												OFFSET -2.46976 0.00000 0.00000
												CHANNELS 3 Zrotation Xrotation Yrotation
												End site
												{
													OFFSET 0.00000 0.00000 0.00000
												}
											}
										}
									}
								}
							}
						}
					}
					JOINT LeftShoulder
					{
						OFFSET 0.01000 7.91373 5.19711
						CHANNELS 3 Zrotation Xrotation Yrotation
						JOINT LeftArm
						{
							OFFSET 18.41580 0.00000 0.00000
							CHANNELS 3 Zrotation Xrotation Yrotation
							JOINT LeftForeArm
							{
								OFFSET 29.11090 0.00000 0.00000
								CHANNELS 3 Zrotation Xrotation Yrotation
								JOINT LeftHand
								{
									OFFSET 24.65040 0.00000 0.00000
									CHANNELS 3 Zrotation Xrotation Yrotation
									JOINT LeftHandThumb1
									{
										OFFSET 5.35114 -0.85590 3.97906
										CHANNELS 3 Zrotation Xrotation Yrotation
										JOINT LeftHandThumb2
										{
											OFFSET 4.52789 0.00000 0.00000
											CHANNELS 3 Zrotation Xrotation Yrotation
											JOINT LeftHandThumb3
											{
												OFFSET 2.46977 0.00000 0.00000
												CHANNELS 3 Zrotation Xrotation Yrotation
												End site
												{
													OFFSET 0.00000 0.00000 0.00000
												}
											}
										}
									}
									JOINT LeftHandIndex1
									{
										OFFSET 14.26970 0.00000 2.88139
										CHANNELS 3 Zrotation Xrotation Yrotation
										JOINT LeftHandIndex2
										{
											OFFSET 5.48836 0.00000 0.00000
											CHANNELS 3 Zrotation Xrotation Yrotation
											JOINT LeftHandIndex3
											{
												OFFSET 3.01859 0.00000 0.00000
												CHANNELS 3 Zrotation Xrotation Yrotation
												End site
												{
													OFFSET 0.00000 0.00000 0.00000
												}
											}
										}
									}
									JOINT LeftHandMiddle1
									{
										OFFSET 14.26970 0.00000 -0.09147
										CHANNELS 3 Zrotation Xrotation Yrotation
										JOINT LeftHandMiddle2
										{
											OFFSET 6.17440 0.00000 0.00000
											CHANNELS 3 Zrotation Xrotation Yrotation
											JOINT LeftHandMiddle3
											{
												OFFSET 3.56744 0.00000 0.00000
												CHANNELS 3 Zrotation Xrotation Yrotation
												End site
												{
													OFFSET 0.00000 0.00000 0.00000
												}
											}
										}
									}
									JOINT LeftHandRing1
									{
										OFFSET 12.69180 0.00000 -3.06433
										CHANNELS 3 Zrotation Xrotation Yrotation
										JOINT LeftHandRing2
										{
											OFFSET 5.62556 0.00000 0.00000
											CHANNELS 3 Zrotation Xrotation Yrotation
											JOINT LeftHandRing3
											{
												OFFSET 3.56744 0.00000 0.00000
												CHANNELS 3 Zrotation Xrotation Yrotation
												End site
												{
													OFFSET 0.00000 0.00000 0.00000
												}
											}
										}
									}
									JOINT LeftHandPinky1
									{
										OFFSET 11.11390 0.00000 -6.03719
										CHANNELS 3 Zrotation Xrotation Yrotation
										JOINT LeftHandPinky2
										{
											OFFSET 4.52789 0.00000 0.00000
											CHANNELS 3 Zrotation Xrotation Yrotation
											JOINT LeftHandPinky3
											{
												OFFSET 2.46976 0.00000 0.00000
												CHANNELS 3 Zrotation Xrotation Yrotation
												End site
												{
													OFFSET 0.00000 0.00000 0.00000
												}
											}
										}
									}
								}
							}
						}
					}
					JOINT pCube4
					{
						OFFSET 0.00000 10.91090 1.10792
						CHANNELS 3 Zrotation Xrotation Yrotation
						End site
						{
							OFFSET 0.00000 0.00000 0.00000
						}
					}
				}
			}
		}
	}
	JOINT RightUpLeg
	{
		OFFSET -9.98441 0.00000 0.00000
		CHANNELS 3 Zrotation Xrotation Yrotation
		JOINT RightLeg
		{
			OFFSET 0.00000 -42.11790 0.00000
			CHANNELS 3 Zrotation Xrotation Yrotation
			JOINT RightFoot
			{
				OFFSET 0.00000 -45.00020 -0.00001
				CHANNELS 3 Zrotation Xrotation Yrotation
				JOINT RightForeFoot
				{
					OFFSET 0.00000 -3.74820 0.00000
					CHANNELS 3 Zrotation Xrotation Yrotation
					JOINT RightToeBase
					{
						OFFSET 0.00000 0.06325 14.43120
						CHANNELS 3 Zrotation Xrotation Yrotation
						End site
						{
							OFFSET 0.00000 0.00000 0.00000
						}
					}
				}
			}
		}
	}
	JOINT LeftUpLeg
	{
		OFFSET 9.98441 0.00000 0.00000
		CHANNELS 3 Zrotation Xrotation Yrotation
		JOINT LeftLeg
		{
			OFFSET 0.00000 -42.11800 0.00000
			CHANNELS 3 Zrotation Xrotation Yrotation
			JOINT LeftFoot
			{
				OFFSET 0.00000 -45.00070 0.00000
				CHANNELS 3 Zrotation Xrotation Yrotation
				JOINT LeftForeFoot
				{
					OFFSET 0.00000 -3.74824 0.00000
					CHANNELS 3 Zrotation Xrotation Yrotation
					JOINT LeftToeBase
					{
						OFFSET 0.00000 0.06325 14.43110
						CHANNELS 3 Zrotation Xrotation Yrotation
						End site
						{
							OFFSET 0.00000 0.00000 0.00000
						}
					}
				}
			}
		}
	}
}
MOTION
Frames: 4
Frame Time: 0.050000
-0.02967525109688869 0.031534680598148616 -0.01648087631864993 -0.02844982191240622 -0.02838326683972251 -0.029824495488874822 -4.013445277809148 0.7342057221116609 -0.7319808221155274 -1.1004792281823823 3.530913707541371 0.38322472639786154 -1.2795422720413232 -2.3539898161736685 -2.1974501563068327 -1.5821362710538402 0.23120907602915067 -0.8727672149346344 -1.3401677844988806 13.259340433259112 5.148989735120432 0.3647293867955221 -0.17002338950523083 12.285814185324975 -1.0318962520724178 -15.613275054894263 1.0353717609547095 -6.432214454267083 2.4609969213892984 -15.43237468305162 68.21697879824438 13.890477490613813 -2.6676921779341196 -11.39984119134389 -2.639324451955113 90.45826293792466 25.83959478363452 -0.5674434794770903 -6.476425474865065 4.538635948377646 -0.14421106467381425 -1.6017567950116085 0.03200735211414202 0.032564239129430295 -56.251822067765495 0.033212078326318645 0.010583568621682322 -56.270948017436474 -38.7650073823108 0.0077814005124936785 -0.013415942353505204 0.039555124679430884 0.006818153288961502 -0.03542779698739138 0.008763119493723177 0.013971698692350343 -0.002270771316358541 -36.729706273245824 -0.005127922461121808 -0.013299229628139734 0.0006341085760090397 0.015704158037895447 0.029266883156171285 0.018921951251659918 -0.035358181728553255 0.0029382620648239536 -19.76038678004172 -0.04457509295439141 0.009663640497647424 -0.028410031226418758 -0.0473222561422912 0.019162307898416418 0.0369178593780737 0.003445282751856659 0.012615325687663145 24.05794163913872 -0.009204012061505434 -0.04886698832646932 28.8697731308335 -0.01635446123279671 0.004191882638925496 28.838243437981077 0.00968105256951803 -0.03638969370225381 9.381880612620598 2.058777213192064 12.931984860796504 -70.77986402833687 31.18620940763637 -9.441902396586299 -12.709341254797538 -9.681431526216286 -64.54966879610527 -12.488269559943614 -2.9165302658150565 3.806504991565006 -0.4588452703145096 0.05997319055772858 -8.15757988454616 -0.027728021549500312 -0.018896318494142 44.56591769350622 -0.015968382820040827 -0.04292100302941671 44.544008731273465 12.42046669438556 0.04685261825696345 -0.007267127611733215 -0.01947114800617729 -0.0023056889826539306 0.016265945950290128 -0.03305415360039898 0.033005554756232645 0.03542997032617043 11.080693397800209 -0.0447665724459438 -0.01120446439538974 0.04789798914495248 -0.03727006167545171 -0.009224934133727746 0.012921276914975103 0.013759380516452905 -0.009163936778895898 4.769135159306348 -0.004235983988172255 -0.006517172813066093 -0.025784124268613356 -0.02617498612662138 -0.028144007019986487 -0.005299724842275809 0.04623911891613493 0.007325460725392507 -5.61980098561156 -0.01794012213160619 -0.01128920642611072 -6.7498446987757035 0.046044597049402725 -0.005425104080163821 -6.765624033586647 -0.0007803250698267091 -0.046677471244116295 0.03699128915169291 -0.001337962891879248 0.027353819475761654 8.068814643468352 3.4996880224517044 -19.177832171925935 -0.015705424569290687 10.437423638240869 0.03837392521664213 -5.626242383521905 -15.664569101300755 3.222711061825752 -0.04330759146159403 -0.036203882805181054 0.04540719258811778 0.00964390765543445 4.680855292179852 -0.022326139417117936 12.428347444440357 -8.206601549722873 6.852367195231756 -0.03971218483560877 46.34571754405651 0.04243183576406592 -4.328885958475546 -14.768021815578908 -3.8745406991531404 -0.029689988785939543 0.008773997711719241 0.0319375330339164 0.005523909212657907 -10.70992649582237 -0.02148003620045184 
-0.0011775788034818339 -0.03564982596098141 0.032753129689680055 0.013380399672397292 0.010863106709118227 0.0474866353340213 -3.7128792947664397 0.5781996357718024 -0.7139092187147501 -1.040368113577312 3.5123158725112926 0.3236684110086994 -1.1823833963876682 -2.3618062051697635 -2.3434448801502703 -1.510148450793903 0.24342655394549043 -0.9118011831416017 -1.3337096641098256 13.28067893338447 5.177667630365733 0.3697410633227484 0.023701996447636632 12.40976324802967 -1.1149639815246144 -15.243957691671522 0.9509036449656734 -6.537071300671421 2.4708644900667025 -15.395931396906308 67.5237137323685 14.937620246311907 -2.188744462363867 -14.851324610212034 -2.919213036533802 91.12710466338967 26.018253013198667 -0.5998351490032341 -6.7992229810939175 4.5164105887423815 -0.14071383588043787 -1.5882217807394858 -0.009044189473161414 0.043827248643256135 -56.24313531811763 -0.04364333436144783 -0.01683252071374863 -56.23870573513137 -38.73317225199424 -0.02086311022853348 0.046392792109861185 0.02354306493121021 0.019808609512595086 -0.011794193580382866 0.025503660929731203 -0.046147178618780677 -0.040546469975710965 -36.66607728346764 0.03236357157088555 -0.025499984551295558 -0.002001865693084678 -0.014476814253398078 0.019559838899011577 -0.03908163944798719 0.04094051605260076 0.04167642050507058 -19.72614790921315 0.02142673756779614 -0.014031063701789886 -0.018917717562328764 -0.029502018315997854 -0.02765915595384835 -0.037096645172787726 0.029316277574402548 -0.0242397772357025 24.01343180177438 -0.026272471501616917 0.04218051026416646 28.823141386258214 -0.03673601350164004 0.011520004935653975 28.820384374327258 0.046274553804492316 0.009896064138242231 9.65107397047827 2.160523474004484 12.838609816661185 -70.68401388136012 30.583033559733803 -10.846039884362199 -12.315567179848406 -10.941944787223685 -65.36430230012307 -12.503696698471586 -3.5993219066691213 4.217809453749182 -0.4815734626643551 0.06827552645974637 -8.099767555045409 0.03445488182263894 0.010832081934412924 44.53900736607049 -0.004215159358816366 -0.025505180069511992 44.56582885268213 12.45353746362632 0.002769348368470756 -0.017296634804531055 -0.03591223523634551 -0.0490395593824828 0.04039690002378302 0.030943759150876587 0.03184328313503265 -0.017489955955624168 11.059279398096804 -0.01179608648994053 -0.047256601173854246 -0.04722766162957191 0.035370833015814215 -0.026112848785259477 0.012817452931357946 -0.043148520251133 0.03324575352167813 4.746908922328127 0.04946001689875877 0.011225952429886308 -0.018835581853672966 -0.026306357610468158 -0.018749985920267352 -0.0007201418816727671 0.04054949843338966 -0.02684442337397424 -5.6289958331169565 0.043886911689164795 0.04658454593920899 -6.703686940235417 -0.042743812910966066 -0.03896867209589294 -6.740698784343943 -0.04068154921027672 0.018623720136461516 0.01903154064914665 -0.04803690128113112 0.045927072918958256 8.029480278455349 3.4757923959972086 -19.208893503323413 -0.0023180098609873138 10.36577645408666 0.030589594673491233 -5.6593189863027575 -15.666856161722027 3.1999907787971793 0.0317203758931171 -0.00045460573496023575 -0.00122111001452264 0.0020790594528211684 4.663105714677906 -0.02201041281858324 12.424784407846005 -8.19643055622688 6.877269787181474 -0.0023121157289864385 46.40137401128634 0.028567798011320544 -4.292743052993075 -14.71178944166853 -3.824052849195779 0.03911702229266104 0.022828529954391413 -0.0317130320402553 0.00442987629689991 -10.768287190823735 -0.031129814933860207 
0.04820255278669267 -0.04654502379132997 0.03476592963792182 -0.01898890953444601 0.01235735322883125 -0.0037670166661356234 -3.400902590951364 0.5265692075647177 -0.8056484992643579 -1.0047363287646194 3.511697014460975 0.3671884876796123 -1.1979224148043301 -2.355036377885205 -2.3077208991098277 -1.4695677192961913 0.23694314436305233 -0.9177556229875512 -1.264674146136387 13.301543954236992 4.86795094036913 0.4109571727411097 0.289286735195766 11.712669181139999 -1.0661618309468772 -14.772753524552268 0.9374918599279118 -6.432037965657294 2.4427464945360873 -15.377664964817514 67.03696920118436 16.30902238714414 -1.53046404675282 -17.485099154760984 -2.9990674388221805 91.84988452474077 26.208125559636937 -0.5531613718784645 -7.231718431642328 4.57349211859711 -0.12106850974491004 -1.6282614475189998 -0.013853482533357865 -0.04834336503104125 -56.25154214647544 0.030430314143287344 -0.005976496988970746 -56.268214233615424 -38.79738546801644 0.020655963576123447 0.04367322747923508 0.043305496906562595 0.04771866164650088 0.008012030672592233 -0.018672826245238857 0.02411908703900797 0.030732323616924014 -36.64790450555228 0.03937904558870958 -0.01049089000181741 0.01279649189584649 -0.0028671821456012314 0.0022502113060415955 0.043087094970577944 -0.03386128383911511 0.042771453094377174 -19.733030528355048 0.047201276979699204 -0.0034575318886085503 -0.00044153532334215276 0.0012978343560778682 0.011983180299745906 -0.016450869976823216 0.04666487306300565 0.04623090522888705 24.1032320424967 -0.025608109809397542 0.004806812943137934 28.85172848077278 -0.0031763235500400296 0.02403107944981801 28.835593361596516 -0.012582952893359197 0.0061326124116172645 9.626011903559112 2.1593249844880598 12.86435871601375 -70.33374537685233 30.37448932470202 -11.538235924018041 -12.45059596048792 -11.13683583973408 -66.36332349101941 -13.114774020957123 -4.38810211937564 4.689434295133659 -0.49944695403416856 0.06642998579643779 -8.126220877776662 0.011903305809532715 -0.016122954234021214 44.61624538917484 0.022678260129053506 -0.043789730925580785 44.591090224961775 12.446340466562846 -0.017249992130756404 -0.025006964116739968 0.00015065975112634603 -0.02386830033706209 0.012549879378665559 -0.00023430902890989418 0.0028911263657220116 0.023166999220178907 11.082528354381067 0.009684235500454214 -0.0492029688698378 -0.03547503926656722 0.029488381967922316 0.006546106794123591 -0.00760949273499509 -0.022750308452457613 0.048403776512354384 4.805661634186824 -8.576643028286474e-05 -0.0024585202899023014 0.00034777522976717424 -0.001760259518677359 0.031048792428650277 0.0063425238616808275 -0.03313914741880377 -0.013228761595454627 -5.605129290384591 0.028505953029797457 0.0011370296022433274 -6.770635133194618 0.014656879011750956 -0.04386564093874763 -6.698879734190748 0.015767485992554734 -0.005317797559485528 -0.0053472857123078995 -0.014840773241752902 -0.030770261168222658 8.0744184260761 3.542907104890793 -19.170096145303955 0.04225839298297176 10.37701947076863 -0.010258486779611258 -5.5771023634210115 -15.681996452040478 3.1785583331865483 -0.01738048328615219 -0.016393176688654514 -0.038649605330194736 -0.005715240232621161 4.747202091438992 -0.011862569422638873 12.431988039254103 -8.245614223486713 6.855879147120284 -0.02730744396979519 46.42596059014899 -0.011581919004763167 -4.29590649865141 -14.716175600962629 -3.792636061338485 -0.04332915275562535 -0.03548444498555373 -0.007114223310358616 0.031123105292224465 -10.747238603242359 0.004143987292620603 
0.003371192098487004 -0.0026659153665931044 0.0211539980190835 0.04414694802134001 0.039186787364481154 -0.009293780471723165 -3.0902773927170575 0.45119217526396493 -0.8632112443056319 -1.0168208504195446 3.543836934818092 0.3206026036461098 -1.2026063602956396 -2.3610458731361232 -2.181006745386712 -1.3172455753342873 0.24865787113983215 -0.8884172516706519 -1.1341860993579462 13.382795749817552 4.417036463329023 0.40744186373417696 0.47894425037251726 10.56208408365755 -0.9904621675309768 -14.385517619116127 0.8879288778081587 -6.283929324872236 2.434602164538038 -15.327046640585612 66.78131308649462 18.41174023369207 -0.8240244598010337 -19.082529723260375 -2.80254226909685 92.57507802163067 26.305315780250886 -0.5690315541401405 -7.627801778941566 4.5196106427778036 -0.12848139796443372 -1.588229181919617 -0.024348743634909166 -0.010780602163914717 -56.25392599716485 0.007318199656046421 0.003372388420095997 -56.22556909833733 -38.78770690313332 0.011119315091798254 -0.02645565019316416 0.04881556325986694 0.015586903982653959 0.03622714742604559 -0.022524598430050023 0.029030470134629578 -0.03874022543633329 -36.68926423972595 0.012974805213497404 0.04051219016414979 -0.015096020853298564 -0.007157700201901454 -0.0034962324592778993 -0.01036612688296613 -0.004722402420964201 -0.010449547971745687 -19.769712808330947 -0.0006546182632174731 0.045604559571307164 -0.0006784829389661925 0.003326599036453773 -0.011784995029713613 0.0370095752815546 0.038371743955464284 0.0076779399660416294 24.077457190285216 -0.04214936480911205 0.02632103203534716 28.8419382017718 -0.02651738335141324 -0.004857169326691167 28.849681110287104 -0.030525062083210916 -0.0200962455767135 9.389584538618537 2.048405837255515 12.83109412930276 -70.17066049691006 30.355557962899816 -11.657890952552892 -12.858916536181296 -10.845279049754824 -66.75453632960006 -13.658490294486377 -4.801769125374791 5.002883371511825 -0.4714150754040442 0.09823381965967302 -8.084113345871984 -0.008704659457803621 0.043449730463447175 44.6021671979775 0.018013165459534686 -0.030305398856392936 44.57110106424875 12.466764787682466 -0.011040346943537765 0.0007266386228982348 -0.0022558519884644515 -0.004222787800334541 0.04946074021216954 0.013858147760472951 0.04688085158474923 -0.03369451323641074 11.074591774110328 -0.028308896093237557 -0.012633950855861087 -0.0029628066339821373 -0.0049338515905949926 0.02821803846638521 -0.04362339062509131 0.008749581021953425 0.021318194793748465 4.758082495156305 0.047321323978020954 0.02325917153673161 -0.010614724332548172 -0.005055700312791252 -0.028424030254907792 0.024923504790059513 0.007195064018625758 -0.02206318838417307 -5.647097213537735 0.008833843082323371 0.04820272081786723 -6.755872676088394 0.00888639305689949 -0.048702439288643894 -6.704388367109263 0.010855331624750802 0.03858710396387616 -0.011558568257282256 -0.0400027969923409 -0.009588205443655877 8.006471583289327 3.4650864209058767 -19.219611598364548 -0.02161334976347531 10.40263570899737 0.0037614683495847522 -5.587344591538361 -15.702857138456013 3.170886414286329 0.01409820185189243 -0.03978961207508458 0.019119271205543555 -0.022352808719153513 4.669784932088292 -0.0011697537279875617 12.470188285238326 -8.25170676226945 6.8785609512148085 0.03927045445867868 46.34594427286109 -0.03505263899001788 -4.353474053475676 -14.761016438022992 -3.8831861311988916 0.04732058372289881 0.019720473629969374 0.010821205743257067 0.01069427674310224 -10.758540661820733 -0.041555043059317565 
